<mxfile host="app.diagrams.net" agent="Mozilla/5.0 (Windows NT 10.0; Win64; x64) AppleWebKit/537.36 (KHTML, like Gecko) Chrome/131.0.0.0 Safari/537.36 Edg/131.0.0.0" version="25.0.1">
  <diagram name="PÃ¡gina-1" id="4DItQZz5NRlPWxnF-e5W">
    <mxGraphModel dx="986" dy="435" grid="1" gridSize="10" guides="1" tooltips="1" connect="1" arrows="1" fold="1" page="1" pageScale="1" pageWidth="827" pageHeight="1169" math="0" shadow="0">
      <root>
        <mxCell id="0" />
        <mxCell id="1" parent="0" />
        <mxCell id="gVOaa1NUPOzYaahcJm4N-1" value="Cadastro" style="rounded=0;whiteSpace=wrap;html=1;" vertex="1" parent="1">
          <mxGeometry x="310" y="80" width="90" height="30" as="geometry" />
        </mxCell>
        <mxCell id="gVOaa1NUPOzYaahcJm4N-2" value="Login" style="rounded=0;whiteSpace=wrap;html=1;" vertex="1" parent="1">
          <mxGeometry x="430" y="80" width="90" height="30" as="geometry" />
        </mxCell>
        <mxCell id="gVOaa1NUPOzYaahcJm4N-3" value="Turma" style="rounded=0;whiteSpace=wrap;html=1;" vertex="1" parent="1">
          <mxGeometry x="550" y="80" width="90" height="30" as="geometry" />
        </mxCell>
        <mxCell id="gVOaa1NUPOzYaahcJm4N-4" value="Atividades" style="rounded=0;whiteSpace=wrap;html=1;" vertex="1" parent="1">
          <mxGeometry x="680" y="80" width="90" height="30" as="geometry" />
        </mxCell>
        <mxCell id="gVOaa1NUPOzYaahcJm4N-5" value="Banco de Dados" style="rounded=0;whiteSpace=wrap;html=1;" vertex="1" parent="1">
          <mxGeometry x="800" y="80" width="90" height="30" as="geometry" />
        </mxCell>
        <mxCell id="gVOaa1NUPOzYaahcJm4N-11" value="Aluno" style="shape=umlActor;verticalLabelPosition=bottom;verticalAlign=top;html=1;outlineConnect=0;" vertex="1" parent="1">
          <mxGeometry x="70" y="65" width="30" height="60" as="geometry" />
        </mxCell>
        <mxCell id="gVOaa1NUPOzYaahcJm4N-15" value="Professor" style="shape=umlActor;verticalLabelPosition=bottom;verticalAlign=top;html=1;outlineConnect=0;" vertex="1" parent="1">
          <mxGeometry x="130" y="65" width="30" height="60" as="geometry" />
        </mxCell>
        <mxCell id="gVOaa1NUPOzYaahcJm4N-22" value="Cadastro" style="rounded=0;whiteSpace=wrap;html=1;" vertex="1" parent="1">
          <mxGeometry x="310" y="1127" width="90" height="30" as="geometry" />
        </mxCell>
        <mxCell id="gVOaa1NUPOzYaahcJm4N-23" value="Login" style="rounded=0;whiteSpace=wrap;html=1;" vertex="1" parent="1">
          <mxGeometry x="430" y="1127" width="90" height="30" as="geometry" />
        </mxCell>
        <mxCell id="gVOaa1NUPOzYaahcJm4N-24" value="Turma" style="rounded=0;whiteSpace=wrap;html=1;" vertex="1" parent="1">
          <mxGeometry x="550" y="1127" width="90" height="30" as="geometry" />
        </mxCell>
        <mxCell id="gVOaa1NUPOzYaahcJm4N-25" value="Atividades" style="rounded=0;whiteSpace=wrap;html=1;" vertex="1" parent="1">
          <mxGeometry x="680" y="1127" width="90" height="30" as="geometry" />
        </mxCell>
        <mxCell id="gVOaa1NUPOzYaahcJm4N-26" value="Banco de Dados" style="rounded=0;whiteSpace=wrap;html=1;" vertex="1" parent="1">
          <mxGeometry x="800" y="1127" width="90" height="30" as="geometry" />
        </mxCell>
        <mxCell id="gVOaa1NUPOzYaahcJm4N-27" value="Aluno" style="shape=umlActor;verticalLabelPosition=bottom;verticalAlign=top;html=1;outlineConnect=0;" vertex="1" parent="1">
          <mxGeometry x="70" y="1112" width="30" height="60" as="geometry" />
        </mxCell>
        <mxCell id="gVOaa1NUPOzYaahcJm4N-28" value="Professor" style="shape=umlActor;verticalLabelPosition=bottom;verticalAlign=top;html=1;outlineConnect=0;" vertex="1" parent="1">
          <mxGeometry x="130" y="1112" width="30" height="60" as="geometry" />
        </mxCell>
        <mxCell id="gVOaa1NUPOzYaahcJm4N-29" value="" style="endArrow=none;dashed=1;html=1;rounded=0;entryX=0.5;entryY=1;entryDx=0;entryDy=0;exitX=0.5;exitY=0;exitDx=0;exitDy=0;" edge="1" parent="1" source="gVOaa1NUPOzYaahcJm4N-26" target="gVOaa1NUPOzYaahcJm4N-5">
          <mxGeometry width="50" height="50" relative="1" as="geometry">
            <mxPoint x="810" y="690" as="sourcePoint" />
            <mxPoint x="860" y="640" as="targetPoint" />
          </mxGeometry>
        </mxCell>
        <mxCell id="gVOaa1NUPOzYaahcJm4N-30" value="" style="endArrow=none;dashed=1;html=1;rounded=0;entryX=0.5;entryY=1;entryDx=0;entryDy=0;exitX=0.5;exitY=0;exitDx=0;exitDy=0;" edge="1" parent="1" source="gVOaa1NUPOzYaahcJm4N-25" target="gVOaa1NUPOzYaahcJm4N-4">
          <mxGeometry width="50" height="50" relative="1" as="geometry">
            <mxPoint x="855" y="715" as="sourcePoint" />
            <mxPoint x="855" y="120" as="targetPoint" />
            <Array as="points" />
          </mxGeometry>
        </mxCell>
        <mxCell id="gVOaa1NUPOzYaahcJm4N-31" value="" style="endArrow=none;dashed=1;html=1;rounded=0;entryX=0.5;entryY=1;entryDx=0;entryDy=0;exitX=0.5;exitY=0;exitDx=0;exitDy=0;" edge="1" parent="1" source="gVOaa1NUPOzYaahcJm4N-24">
          <mxGeometry width="50" height="50" relative="1" as="geometry">
            <mxPoint x="594.44" y="705" as="sourcePoint" />
            <mxPoint x="594.44" y="110" as="targetPoint" />
            <Array as="points" />
          </mxGeometry>
        </mxCell>
        <mxCell id="gVOaa1NUPOzYaahcJm4N-32" value="" style="endArrow=none;dashed=1;html=1;rounded=0;entryX=0.5;entryY=1;entryDx=0;entryDy=0;exitX=0.5;exitY=0;exitDx=0;exitDy=0;" edge="1" parent="1" source="gVOaa1NUPOzYaahcJm4N-23">
          <mxGeometry width="50" height="50" relative="1" as="geometry">
            <mxPoint x="474.44" y="705" as="sourcePoint" />
            <mxPoint x="474.44" y="110" as="targetPoint" />
            <Array as="points" />
          </mxGeometry>
        </mxCell>
        <mxCell id="gVOaa1NUPOzYaahcJm4N-33" value="" style="endArrow=none;dashed=1;html=1;rounded=0;entryX=0.5;entryY=1;entryDx=0;entryDy=0;exitX=0.581;exitY=0.118;exitDx=0;exitDy=0;exitPerimeter=0;" edge="1" parent="1" source="gVOaa1NUPOzYaahcJm4N-22">
          <mxGeometry width="50" height="50" relative="1" as="geometry">
            <mxPoint x="354.44" y="705" as="sourcePoint" />
            <mxPoint x="354.44" y="110" as="targetPoint" />
            <Array as="points" />
          </mxGeometry>
        </mxCell>
        <mxCell id="gVOaa1NUPOzYaahcJm4N-34" value="" style="endArrow=none;dashed=1;html=1;rounded=0;entryX=0.5;entryY=1;entryDx=0;entryDy=0;exitX=0.5;exitY=0;exitDx=0;exitDy=0;exitPerimeter=0;" edge="1" parent="1" source="gVOaa1NUPOzYaahcJm4N-27">
          <mxGeometry width="50" height="50" relative="1" as="geometry">
            <mxPoint x="84.44000000000005" y="720" as="sourcePoint" />
            <mxPoint x="84.44000000000005" y="125" as="targetPoint" />
            <Array as="points" />
          </mxGeometry>
        </mxCell>
        <mxCell id="gVOaa1NUPOzYaahcJm4N-35" value="" style="endArrow=none;dashed=1;html=1;rounded=0;entryX=0.5;entryY=1;entryDx=0;entryDy=0;exitX=0.5;exitY=0;exitDx=0;exitDy=0;exitPerimeter=0;" edge="1" parent="1" source="gVOaa1NUPOzYaahcJm4N-28">
          <mxGeometry width="50" height="50" relative="1" as="geometry">
            <mxPoint x="144.44000000000005" y="735" as="sourcePoint" />
            <mxPoint x="144.44000000000005" y="140" as="targetPoint" />
            <Array as="points" />
          </mxGeometry>
        </mxCell>
        <mxCell id="gVOaa1NUPOzYaahcJm4N-36" value="" style="endArrow=classic;html=1;rounded=0;" edge="1" parent="1">
          <mxGeometry width="50" height="50" relative="1" as="geometry">
            <mxPoint x="90" y="180" as="sourcePoint" />
            <mxPoint x="350" y="180" as="targetPoint" />
          </mxGeometry>
        </mxCell>
        <mxCell id="gVOaa1NUPOzYaahcJm4N-37" value="realizarCadastro(email, senha)" style="edgeLabel;html=1;align=center;verticalAlign=middle;resizable=0;points=[];" vertex="1" connectable="0" parent="gVOaa1NUPOzYaahcJm4N-36">
          <mxGeometry x="-0.349" y="-3" relative="1" as="geometry">
            <mxPoint as="offset" />
          </mxGeometry>
        </mxCell>
        <mxCell id="gVOaa1NUPOzYaahcJm4N-38" value="" style="endArrow=classic;html=1;rounded=0;" edge="1" parent="1">
          <mxGeometry width="50" height="50" relative="1" as="geometry">
            <mxPoint x="140" y="230" as="sourcePoint" />
            <mxPoint x="360" y="230" as="targetPoint" />
          </mxGeometry>
        </mxCell>
        <mxCell id="gVOaa1NUPOzYaahcJm4N-39" value="realizarCadastro(email, senha)" style="edgeLabel;html=1;align=center;verticalAlign=middle;resizable=0;points=[];" vertex="1" connectable="0" parent="gVOaa1NUPOzYaahcJm4N-38">
          <mxGeometry x="-0.349" y="-3" relative="1" as="geometry">
            <mxPoint as="offset" />
          </mxGeometry>
        </mxCell>
        <mxCell id="gVOaa1NUPOzYaahcJm4N-40" value="" style="endArrow=classic;html=1;rounded=0;" edge="1" parent="1">
          <mxGeometry width="50" height="50" relative="1" as="geometry">
            <mxPoint x="350" y="180" as="sourcePoint" />
            <mxPoint x="850" y="180" as="targetPoint" />
          </mxGeometry>
        </mxCell>
        <mxCell id="gVOaa1NUPOzYaahcJm4N-41" value="salvarCadastro(email, senha)" style="edgeLabel;html=1;align=center;verticalAlign=middle;resizable=0;points=[];" vertex="1" connectable="0" parent="gVOaa1NUPOzYaahcJm4N-40">
          <mxGeometry x="-0.349" y="-3" relative="1" as="geometry">
            <mxPoint as="offset" />
          </mxGeometry>
        </mxCell>
        <mxCell id="gVOaa1NUPOzYaahcJm4N-42" value="" style="endArrow=classic;html=1;rounded=0;" edge="1" parent="1">
          <mxGeometry width="50" height="50" relative="1" as="geometry">
            <mxPoint x="355" y="230" as="sourcePoint" />
            <mxPoint x="850" y="230" as="targetPoint" />
          </mxGeometry>
        </mxCell>
        <mxCell id="gVOaa1NUPOzYaahcJm4N-43" value="salvarCadastro(email, senha)" style="edgeLabel;html=1;align=center;verticalAlign=middle;resizable=0;points=[];" vertex="1" connectable="0" parent="gVOaa1NUPOzYaahcJm4N-42">
          <mxGeometry x="-0.349" y="-3" relative="1" as="geometry">
            <mxPoint as="offset" />
          </mxGeometry>
        </mxCell>
        <mxCell id="gVOaa1NUPOzYaahcJm4N-47" value="" style="endArrow=block;dashed=1;endFill=0;endSize=12;html=1;rounded=0;" edge="1" parent="1">
          <mxGeometry width="160" relative="1" as="geometry">
            <mxPoint x="842.5" y="250" as="sourcePoint" />
            <mxPoint x="347.5" y="250" as="targetPoint" />
          </mxGeometry>
        </mxCell>
        <mxCell id="gVOaa1NUPOzYaahcJm4N-48" value="cadastroConfirmado()" style="edgeLabel;html=1;align=center;verticalAlign=middle;resizable=0;points=[];" vertex="1" connectable="0" parent="gVOaa1NUPOzYaahcJm4N-47">
          <mxGeometry x="-0.0264" y="3" relative="1" as="geometry">
            <mxPoint as="offset" />
          </mxGeometry>
        </mxCell>
        <mxCell id="gVOaa1NUPOzYaahcJm4N-49" value="" style="endArrow=block;dashed=1;endFill=0;endSize=12;html=1;rounded=0;" edge="1" parent="1">
          <mxGeometry width="160" relative="1" as="geometry">
            <mxPoint x="850" y="200" as="sourcePoint" />
            <mxPoint x="350" y="200" as="targetPoint" />
          </mxGeometry>
        </mxCell>
        <mxCell id="gVOaa1NUPOzYaahcJm4N-50" value="cadastroConfirmado" style="edgeLabel;html=1;align=center;verticalAlign=middle;resizable=0;points=[];" vertex="1" connectable="0" parent="gVOaa1NUPOzYaahcJm4N-49">
          <mxGeometry x="-0.0264" y="3" relative="1" as="geometry">
            <mxPoint as="offset" />
          </mxGeometry>
        </mxCell>
        <mxCell id="gVOaa1NUPOzYaahcJm4N-51" value="" style="endArrow=classic;html=1;rounded=0;" edge="1" parent="1">
          <mxGeometry width="50" height="50" relative="1" as="geometry">
            <mxPoint x="80" y="300" as="sourcePoint" />
            <mxPoint x="480" y="300" as="targetPoint" />
          </mxGeometry>
        </mxCell>
        <mxCell id="gVOaa1NUPOzYaahcJm4N-52" value="realizarLogin(email, senha)" style="edgeLabel;html=1;align=center;verticalAlign=middle;resizable=0;points=[];" vertex="1" connectable="0" parent="gVOaa1NUPOzYaahcJm4N-51">
          <mxGeometry x="-0.349" y="-3" relative="1" as="geometry">
            <mxPoint as="offset" />
          </mxGeometry>
        </mxCell>
        <mxCell id="gVOaa1NUPOzYaahcJm4N-53" value="" style="endArrow=classic;html=1;rounded=0;" edge="1" parent="1">
          <mxGeometry width="50" height="50" relative="1" as="geometry">
            <mxPoint x="150" y="350" as="sourcePoint" />
            <mxPoint x="480" y="350" as="targetPoint" />
          </mxGeometry>
        </mxCell>
        <mxCell id="gVOaa1NUPOzYaahcJm4N-54" value="realizarLogin(email, senha)" style="edgeLabel;html=1;align=center;verticalAlign=middle;resizable=0;points=[];" vertex="1" connectable="0" parent="gVOaa1NUPOzYaahcJm4N-53">
          <mxGeometry x="-0.349" y="-3" relative="1" as="geometry">
            <mxPoint as="offset" />
          </mxGeometry>
        </mxCell>
        <mxCell id="gVOaa1NUPOzYaahcJm4N-55" value="" style="endArrow=classic;html=1;rounded=0;" edge="1" parent="1">
          <mxGeometry width="50" height="50" relative="1" as="geometry">
            <mxPoint x="480" y="300" as="sourcePoint" />
            <mxPoint x="840" y="300" as="targetPoint" />
          </mxGeometry>
        </mxCell>
        <mxCell id="gVOaa1NUPOzYaahcJm4N-56" value="verificarCredenciais(email, senha)" style="edgeLabel;html=1;align=center;verticalAlign=middle;resizable=0;points=[];" vertex="1" connectable="0" parent="gVOaa1NUPOzYaahcJm4N-55">
          <mxGeometry x="-0.349" y="-3" relative="1" as="geometry">
            <mxPoint as="offset" />
          </mxGeometry>
        </mxCell>
        <mxCell id="gVOaa1NUPOzYaahcJm4N-57" value="" style="endArrow=classic;html=1;rounded=0;" edge="1" parent="1">
          <mxGeometry width="50" height="50" relative="1" as="geometry">
            <mxPoint x="480" y="350" as="sourcePoint" />
            <mxPoint x="840" y="350" as="targetPoint" />
          </mxGeometry>
        </mxCell>
        <mxCell id="gVOaa1NUPOzYaahcJm4N-58" value="verificarCredenciais(email, senha)" style="edgeLabel;html=1;align=center;verticalAlign=middle;resizable=0;points=[];" vertex="1" connectable="0" parent="gVOaa1NUPOzYaahcJm4N-57">
          <mxGeometry x="-0.349" y="-3" relative="1" as="geometry">
            <mxPoint as="offset" />
          </mxGeometry>
        </mxCell>
        <mxCell id="gVOaa1NUPOzYaahcJm4N-59" value="" style="endArrow=block;dashed=1;endFill=0;endSize=12;html=1;rounded=0;" edge="1" parent="1">
          <mxGeometry width="160" relative="1" as="geometry">
            <mxPoint x="840" y="370" as="sourcePoint" />
            <mxPoint x="470" y="370" as="targetPoint" />
          </mxGeometry>
        </mxCell>
        <mxCell id="gVOaa1NUPOzYaahcJm4N-60" value="credenciaisValidas()" style="edgeLabel;html=1;align=center;verticalAlign=middle;resizable=0;points=[];" vertex="1" connectable="0" parent="gVOaa1NUPOzYaahcJm4N-59">
          <mxGeometry x="-0.0264" y="3" relative="1" as="geometry">
            <mxPoint as="offset" />
          </mxGeometry>
        </mxCell>
        <mxCell id="gVOaa1NUPOzYaahcJm4N-61" value="" style="endArrow=block;dashed=1;endFill=0;endSize=12;html=1;rounded=0;" edge="1" parent="1">
          <mxGeometry width="160" relative="1" as="geometry">
            <mxPoint x="840" y="320" as="sourcePoint" />
            <mxPoint x="470" y="320" as="targetPoint" />
          </mxGeometry>
        </mxCell>
        <mxCell id="gVOaa1NUPOzYaahcJm4N-62" value="credenciaisValidas()" style="edgeLabel;html=1;align=center;verticalAlign=middle;resizable=0;points=[];" vertex="1" connectable="0" parent="gVOaa1NUPOzYaahcJm4N-61">
          <mxGeometry x="-0.0264" y="3" relative="1" as="geometry">
            <mxPoint as="offset" />
          </mxGeometry>
        </mxCell>
        <mxCell id="gVOaa1NUPOzYaahcJm4N-63" value="" style="endArrow=classic;html=1;rounded=0;" edge="1" parent="1">
          <mxGeometry width="50" height="50" relative="1" as="geometry">
            <mxPoint x="140" y="420" as="sourcePoint" />
            <mxPoint x="720" y="420" as="targetPoint" />
          </mxGeometry>
        </mxCell>
        <mxCell id="gVOaa1NUPOzYaahcJm4N-64" value="cadastrarAtividade()" style="edgeLabel;html=1;align=center;verticalAlign=middle;resizable=0;points=[];" vertex="1" connectable="0" parent="gVOaa1NUPOzYaahcJm4N-63">
          <mxGeometry x="-0.349" y="-3" relative="1" as="geometry">
            <mxPoint as="offset" />
          </mxGeometry>
        </mxCell>
        <mxCell id="gVOaa1NUPOzYaahcJm4N-65" value="" style="endArrow=classic;html=1;rounded=0;" edge="1" parent="1">
          <mxGeometry width="50" height="50" relative="1" as="geometry">
            <mxPoint x="730" y="420" as="sourcePoint" />
            <mxPoint x="840" y="420" as="targetPoint" />
          </mxGeometry>
        </mxCell>
        <mxCell id="gVOaa1NUPOzYaahcJm4N-66" value="salvar&lt;div&gt;Atividade()&lt;/div&gt;" style="edgeLabel;html=1;align=center;verticalAlign=middle;resizable=0;points=[];" vertex="1" connectable="0" parent="gVOaa1NUPOzYaahcJm4N-65">
          <mxGeometry x="-0.349" y="-3" relative="1" as="geometry">
            <mxPoint as="offset" />
          </mxGeometry>
        </mxCell>
        <mxCell id="gVOaa1NUPOzYaahcJm4N-67" value="" style="endArrow=block;dashed=1;endFill=0;endSize=12;html=1;rounded=0;" edge="1" parent="1">
          <mxGeometry width="160" relative="1" as="geometry">
            <mxPoint x="835" y="450" as="sourcePoint" />
            <mxPoint x="730" y="450" as="targetPoint" />
          </mxGeometry>
        </mxCell>
        <mxCell id="gVOaa1NUPOzYaahcJm4N-68" value="atividade&lt;div&gt;Cadastrada()&lt;/div&gt;" style="edgeLabel;html=1;align=center;verticalAlign=middle;resizable=0;points=[];" vertex="1" connectable="0" parent="gVOaa1NUPOzYaahcJm4N-67">
          <mxGeometry x="-0.0264" y="3" relative="1" as="geometry">
            <mxPoint as="offset" />
          </mxGeometry>
        </mxCell>
        <mxCell id="gVOaa1NUPOzYaahcJm4N-69" value="" style="endArrow=classic;html=1;rounded=0;" edge="1" parent="1">
          <mxGeometry width="50" height="50" relative="1" as="geometry">
            <mxPoint x="80" y="480" as="sourcePoint" />
            <mxPoint x="720" y="480" as="targetPoint" />
          </mxGeometry>
        </mxCell>
        <mxCell id="gVOaa1NUPOzYaahcJm4N-70" value="iniciarAtividade()" style="edgeLabel;html=1;align=center;verticalAlign=middle;resizable=0;points=[];" vertex="1" connectable="0" parent="gVOaa1NUPOzYaahcJm4N-69">
          <mxGeometry x="-0.349" y="-3" relative="1" as="geometry">
            <mxPoint as="offset" />
          </mxGeometry>
        </mxCell>
        <mxCell id="gVOaa1NUPOzYaahcJm4N-71" value="" style="endArrow=classic;html=1;rounded=0;" edge="1" parent="1">
          <mxGeometry width="50" height="50" relative="1" as="geometry">
            <mxPoint x="730" y="480" as="sourcePoint" />
            <mxPoint x="840" y="480" as="targetPoint" />
          </mxGeometry>
        </mxCell>
        <mxCell id="gVOaa1NUPOzYaahcJm4N-72" value="&lt;div&gt;&lt;br&gt;&lt;/div&gt;&lt;div&gt;&lt;br&gt;&lt;/div&gt;" style="edgeLabel;html=1;align=center;verticalAlign=middle;resizable=0;points=[];" vertex="1" connectable="0" parent="gVOaa1NUPOzYaahcJm4N-71">
          <mxGeometry x="-0.349" y="-3" relative="1" as="geometry">
            <mxPoint as="offset" />
          </mxGeometry>
        </mxCell>
        <mxCell id="gVOaa1NUPOzYaahcJm4N-78" value="realizarAtividade()" style="edgeLabel;html=1;align=center;verticalAlign=middle;resizable=0;points=[];" vertex="1" connectable="0" parent="gVOaa1NUPOzYaahcJm4N-71">
          <mxGeometry x="-0.1105" y="-2" relative="1" as="geometry">
            <mxPoint as="offset" />
          </mxGeometry>
        </mxCell>
        <mxCell id="gVOaa1NUPOzYaahcJm4N-73" value="" style="endArrow=block;dashed=1;endFill=0;endSize=12;html=1;rounded=0;" edge="1" parent="1">
          <mxGeometry width="160" relative="1" as="geometry">
            <mxPoint x="840" y="510" as="sourcePoint" />
            <mxPoint x="720" y="510" as="targetPoint" />
          </mxGeometry>
        </mxCell>
        <mxCell id="gVOaa1NUPOzYaahcJm4N-74" value="atividade&lt;div&gt;Realizada()&lt;/div&gt;" style="edgeLabel;html=1;align=center;verticalAlign=middle;resizable=0;points=[];" vertex="1" connectable="0" parent="gVOaa1NUPOzYaahcJm4N-73">
          <mxGeometry x="-0.0264" y="3" relative="1" as="geometry">
            <mxPoint as="offset" />
          </mxGeometry>
        </mxCell>
        <mxCell id="gVOaa1NUPOzYaahcJm4N-79" value="" style="endArrow=classic;html=1;rounded=0;" edge="1" parent="1">
          <mxGeometry width="50" height="50" relative="1" as="geometry">
            <mxPoint x="140" y="553" as="sourcePoint" />
            <mxPoint x="720" y="553" as="targetPoint" />
          </mxGeometry>
        </mxCell>
        <mxCell id="gVOaa1NUPOzYaahcJm4N-80" value="alterarAtividade(dados)" style="edgeLabel;html=1;align=center;verticalAlign=middle;resizable=0;points=[];" vertex="1" connectable="0" parent="gVOaa1NUPOzYaahcJm4N-79">
          <mxGeometry x="-0.349" y="-3" relative="1" as="geometry">
            <mxPoint as="offset" />
          </mxGeometry>
        </mxCell>
        <mxCell id="gVOaa1NUPOzYaahcJm4N-81" value="" style="endArrow=classic;html=1;rounded=0;" edge="1" parent="1">
          <mxGeometry width="50" height="50" relative="1" as="geometry">
            <mxPoint x="730" y="553" as="sourcePoint" />
            <mxPoint x="840" y="553" as="targetPoint" />
          </mxGeometry>
        </mxCell>
        <mxCell id="gVOaa1NUPOzYaahcJm4N-82" value="editar&lt;div&gt;Atividade(dados)&lt;/div&gt;" style="edgeLabel;html=1;align=center;verticalAlign=middle;resizable=0;points=[];" vertex="1" connectable="0" parent="gVOaa1NUPOzYaahcJm4N-81">
          <mxGeometry x="-0.349" y="-3" relative="1" as="geometry">
            <mxPoint as="offset" />
          </mxGeometry>
        </mxCell>
        <mxCell id="gVOaa1NUPOzYaahcJm4N-83" value="" style="endArrow=block;dashed=1;endFill=0;endSize=12;html=1;rounded=0;" edge="1" parent="1">
          <mxGeometry width="160" relative="1" as="geometry">
            <mxPoint x="835" y="583" as="sourcePoint" />
            <mxPoint x="730" y="583" as="targetPoint" />
          </mxGeometry>
        </mxCell>
        <mxCell id="gVOaa1NUPOzYaahcJm4N-84" value="atividade&lt;div&gt;Atualizada()&lt;/div&gt;" style="edgeLabel;html=1;align=center;verticalAlign=middle;resizable=0;points=[];" vertex="1" connectable="0" parent="gVOaa1NUPOzYaahcJm4N-83">
          <mxGeometry x="-0.0264" y="3" relative="1" as="geometry">
            <mxPoint as="offset" />
          </mxGeometry>
        </mxCell>
        <mxCell id="gVOaa1NUPOzYaahcJm4N-85" value="" style="endArrow=classic;html=1;rounded=0;" edge="1" parent="1">
          <mxGeometry width="50" height="50" relative="1" as="geometry">
            <mxPoint x="140" y="620" as="sourcePoint" />
            <mxPoint x="720" y="620" as="targetPoint" />
          </mxGeometry>
        </mxCell>
        <mxCell id="gVOaa1NUPOzYaahcJm4N-86" value="lancarNota(nota)" style="edgeLabel;html=1;align=center;verticalAlign=middle;resizable=0;points=[];" vertex="1" connectable="0" parent="gVOaa1NUPOzYaahcJm4N-85">
          <mxGeometry x="-0.349" y="-3" relative="1" as="geometry">
            <mxPoint as="offset" />
          </mxGeometry>
        </mxCell>
        <mxCell id="gVOaa1NUPOzYaahcJm4N-87" value="" style="endArrow=classic;html=1;rounded=0;" edge="1" parent="1">
          <mxGeometry width="50" height="50" relative="1" as="geometry">
            <mxPoint x="730" y="620" as="sourcePoint" />
            <mxPoint x="840" y="620" as="targetPoint" />
          </mxGeometry>
        </mxCell>
        <mxCell id="gVOaa1NUPOzYaahcJm4N-88" value="salvarNota(nota)" style="edgeLabel;html=1;align=center;verticalAlign=middle;resizable=0;points=[];" vertex="1" connectable="0" parent="gVOaa1NUPOzYaahcJm4N-87">
          <mxGeometry x="-0.349" y="-3" relative="1" as="geometry">
            <mxPoint as="offset" />
          </mxGeometry>
        </mxCell>
        <mxCell id="gVOaa1NUPOzYaahcJm4N-89" value="" style="endArrow=block;dashed=1;endFill=0;endSize=12;html=1;rounded=0;" edge="1" parent="1">
          <mxGeometry width="160" relative="1" as="geometry">
            <mxPoint x="835" y="650" as="sourcePoint" />
            <mxPoint x="730" y="650" as="targetPoint" />
          </mxGeometry>
        </mxCell>
        <mxCell id="gVOaa1NUPOzYaahcJm4N-90" value="notaSalva()" style="edgeLabel;html=1;align=center;verticalAlign=middle;resizable=0;points=[];" vertex="1" connectable="0" parent="gVOaa1NUPOzYaahcJm4N-89">
          <mxGeometry x="-0.0264" y="3" relative="1" as="geometry">
            <mxPoint as="offset" />
          </mxGeometry>
        </mxCell>
        <mxCell id="gVOaa1NUPOzYaahcJm4N-97" value="" style="endArrow=classic;html=1;rounded=0;" edge="1" parent="1">
          <mxGeometry width="50" height="50" relative="1" as="geometry">
            <mxPoint x="80" y="680" as="sourcePoint" />
            <mxPoint x="720" y="680" as="targetPoint" />
          </mxGeometry>
        </mxCell>
        <mxCell id="gVOaa1NUPOzYaahcJm4N-98" value="visualizarNotas()" style="edgeLabel;html=1;align=center;verticalAlign=middle;resizable=0;points=[];" vertex="1" connectable="0" parent="gVOaa1NUPOzYaahcJm4N-97">
          <mxGeometry x="-0.349" y="-3" relative="1" as="geometry">
            <mxPoint as="offset" />
          </mxGeometry>
        </mxCell>
        <mxCell id="gVOaa1NUPOzYaahcJm4N-99" value="" style="endArrow=classic;html=1;rounded=0;" edge="1" parent="1">
          <mxGeometry width="50" height="50" relative="1" as="geometry">
            <mxPoint x="730" y="680" as="sourcePoint" />
            <mxPoint x="840" y="680" as="targetPoint" />
          </mxGeometry>
        </mxCell>
        <mxCell id="gVOaa1NUPOzYaahcJm4N-100" value="&lt;div&gt;&lt;br&gt;&lt;/div&gt;&lt;div&gt;&lt;br&gt;&lt;/div&gt;" style="edgeLabel;html=1;align=center;verticalAlign=middle;resizable=0;points=[];" vertex="1" connectable="0" parent="gVOaa1NUPOzYaahcJm4N-99">
          <mxGeometry x="-0.349" y="-3" relative="1" as="geometry">
            <mxPoint as="offset" />
          </mxGeometry>
        </mxCell>
        <mxCell id="gVOaa1NUPOzYaahcJm4N-101" value="consultarNotas()" style="edgeLabel;html=1;align=center;verticalAlign=middle;resizable=0;points=[];" vertex="1" connectable="0" parent="gVOaa1NUPOzYaahcJm4N-99">
          <mxGeometry x="-0.1105" y="-2" relative="1" as="geometry">
            <mxPoint as="offset" />
          </mxGeometry>
        </mxCell>
        <mxCell id="gVOaa1NUPOzYaahcJm4N-102" value="" style="endArrow=block;dashed=1;endFill=0;endSize=12;html=1;rounded=0;" edge="1" parent="1">
          <mxGeometry width="160" relative="1" as="geometry">
            <mxPoint x="840" y="710" as="sourcePoint" />
            <mxPoint x="720" y="710" as="targetPoint" />
          </mxGeometry>
        </mxCell>
        <mxCell id="gVOaa1NUPOzYaahcJm4N-103" value="notasAtividade(0" style="edgeLabel;html=1;align=center;verticalAlign=middle;resizable=0;points=[];" vertex="1" connectable="0" parent="gVOaa1NUPOzYaahcJm4N-102">
          <mxGeometry x="-0.0264" y="3" relative="1" as="geometry">
            <mxPoint as="offset" />
          </mxGeometry>
        </mxCell>
        <mxCell id="gVOaa1NUPOzYaahcJm4N-104" value="" style="endArrow=classic;html=1;rounded=0;" edge="1" parent="1">
          <mxGeometry width="50" height="50" relative="1" as="geometry">
            <mxPoint x="80" y="740" as="sourcePoint" />
            <mxPoint x="590" y="740" as="targetPoint" />
          </mxGeometry>
        </mxCell>
        <mxCell id="gVOaa1NUPOzYaahcJm4N-105" value="cadastrarTurma(List&amp;lt;Aluno&amp;gt;)" style="edgeLabel;html=1;align=center;verticalAlign=middle;resizable=0;points=[];" vertex="1" connectable="0" parent="gVOaa1NUPOzYaahcJm4N-104">
          <mxGeometry x="-0.349" y="-3" relative="1" as="geometry">
            <mxPoint as="offset" />
          </mxGeometry>
        </mxCell>
        <mxCell id="gVOaa1NUPOzYaahcJm4N-106" value="" style="endArrow=classic;html=1;rounded=0;" edge="1" parent="1">
          <mxGeometry width="50" height="50" relative="1" as="geometry">
            <mxPoint x="600" y="740" as="sourcePoint" />
            <mxPoint x="840" y="740" as="targetPoint" />
          </mxGeometry>
        </mxCell>
        <mxCell id="gVOaa1NUPOzYaahcJm4N-107" value="&lt;div&gt;&lt;br&gt;&lt;/div&gt;&lt;div&gt;&lt;br&gt;&lt;/div&gt;" style="edgeLabel;html=1;align=center;verticalAlign=middle;resizable=0;points=[];" vertex="1" connectable="0" parent="gVOaa1NUPOzYaahcJm4N-106">
          <mxGeometry x="-0.349" y="-3" relative="1" as="geometry">
            <mxPoint as="offset" />
          </mxGeometry>
        </mxCell>
        <mxCell id="gVOaa1NUPOzYaahcJm4N-108" value="cadastrarTurma(List&amp;lt;Aluno&amp;gt;)" style="edgeLabel;html=1;align=center;verticalAlign=middle;resizable=0;points=[];" vertex="1" connectable="0" parent="gVOaa1NUPOzYaahcJm4N-106">
          <mxGeometry x="-0.1105" y="-2" relative="1" as="geometry">
            <mxPoint as="offset" />
          </mxGeometry>
        </mxCell>
        <mxCell id="gVOaa1NUPOzYaahcJm4N-109" value="" style="endArrow=block;dashed=1;endFill=0;endSize=12;html=1;rounded=0;" edge="1" parent="1">
          <mxGeometry width="160" relative="1" as="geometry">
            <mxPoint x="840" y="770" as="sourcePoint" />
            <mxPoint x="600" y="770" as="targetPoint" />
          </mxGeometry>
        </mxCell>
        <mxCell id="gVOaa1NUPOzYaahcJm4N-110" value="turmaCadastrada()" style="edgeLabel;html=1;align=center;verticalAlign=middle;resizable=0;points=[];" vertex="1" connectable="0" parent="gVOaa1NUPOzYaahcJm4N-109">
          <mxGeometry x="-0.0264" y="3" relative="1" as="geometry">
            <mxPoint as="offset" />
          </mxGeometry>
        </mxCell>
        <mxCell id="gVOaa1NUPOzYaahcJm4N-111" value="" style="endArrow=classic;html=1;rounded=0;" edge="1" parent="1">
          <mxGeometry width="50" height="50" relative="1" as="geometry">
            <mxPoint x="80" y="800" as="sourcePoint" />
            <mxPoint x="590" y="800" as="targetPoint" />
            <Array as="points">
              <mxPoint x="340" y="800" />
            </Array>
          </mxGeometry>
        </mxCell>
        <mxCell id="gVOaa1NUPOzYaahcJm4N-112" value="alterarTurma(dados)" style="edgeLabel;html=1;align=center;verticalAlign=middle;resizable=0;points=[];" vertex="1" connectable="0" parent="gVOaa1NUPOzYaahcJm4N-111">
          <mxGeometry x="-0.349" y="-3" relative="1" as="geometry">
            <mxPoint as="offset" />
          </mxGeometry>
        </mxCell>
        <mxCell id="gVOaa1NUPOzYaahcJm4N-113" value="" style="endArrow=classic;html=1;rounded=0;" edge="1" parent="1">
          <mxGeometry width="50" height="50" relative="1" as="geometry">
            <mxPoint x="600" y="800" as="sourcePoint" />
            <mxPoint x="840" y="800" as="targetPoint" />
          </mxGeometry>
        </mxCell>
        <mxCell id="gVOaa1NUPOzYaahcJm4N-114" value="&lt;div&gt;&lt;br&gt;&lt;/div&gt;&lt;div&gt;&lt;br&gt;&lt;/div&gt;" style="edgeLabel;html=1;align=center;verticalAlign=middle;resizable=0;points=[];" vertex="1" connectable="0" parent="gVOaa1NUPOzYaahcJm4N-113">
          <mxGeometry x="-0.349" y="-3" relative="1" as="geometry">
            <mxPoint as="offset" />
          </mxGeometry>
        </mxCell>
        <mxCell id="gVOaa1NUPOzYaahcJm4N-115" value="alterarTurma(dados)" style="edgeLabel;html=1;align=center;verticalAlign=middle;resizable=0;points=[];" vertex="1" connectable="0" parent="gVOaa1NUPOzYaahcJm4N-113">
          <mxGeometry x="-0.1105" y="-2" relative="1" as="geometry">
            <mxPoint as="offset" />
          </mxGeometry>
        </mxCell>
        <mxCell id="gVOaa1NUPOzYaahcJm4N-116" value="" style="endArrow=block;dashed=1;endFill=0;endSize=12;html=1;rounded=0;" edge="1" parent="1">
          <mxGeometry width="160" relative="1" as="geometry">
            <mxPoint x="840" y="830" as="sourcePoint" />
            <mxPoint x="600" y="830" as="targetPoint" />
          </mxGeometry>
        </mxCell>
        <mxCell id="gVOaa1NUPOzYaahcJm4N-117" value="turmaAlterada(0" style="edgeLabel;html=1;align=center;verticalAlign=middle;resizable=0;points=[];" vertex="1" connectable="0" parent="gVOaa1NUPOzYaahcJm4N-116">
          <mxGeometry x="-0.0264" y="3" relative="1" as="geometry">
            <mxPoint as="offset" />
          </mxGeometry>
        </mxCell>
        <mxCell id="gVOaa1NUPOzYaahcJm4N-130" value="" style="endArrow=classic;html=1;rounded=0;" edge="1" parent="1">
          <mxGeometry width="50" height="50" relative="1" as="geometry">
            <mxPoint x="80" y="870" as="sourcePoint" />
            <mxPoint x="470" y="870" as="targetPoint" />
            <Array as="points">
              <mxPoint x="340" y="870" />
            </Array>
          </mxGeometry>
        </mxCell>
        <mxCell id="gVOaa1NUPOzYaahcJm4N-131" value="alterarSenha(senha)" style="edgeLabel;html=1;align=center;verticalAlign=middle;resizable=0;points=[];" vertex="1" connectable="0" parent="gVOaa1NUPOzYaahcJm4N-130">
          <mxGeometry x="-0.349" y="-3" relative="1" as="geometry">
            <mxPoint as="offset" />
          </mxGeometry>
        </mxCell>
        <mxCell id="gVOaa1NUPOzYaahcJm4N-132" value="" style="endArrow=classic;html=1;rounded=0;" edge="1" parent="1">
          <mxGeometry width="50" height="50" relative="1" as="geometry">
            <mxPoint x="470" y="870" as="sourcePoint" />
            <mxPoint x="840" y="870" as="targetPoint" />
          </mxGeometry>
        </mxCell>
        <mxCell id="gVOaa1NUPOzYaahcJm4N-133" value="&lt;div&gt;&lt;br&gt;&lt;/div&gt;&lt;div&gt;&lt;br&gt;&lt;/div&gt;" style="edgeLabel;html=1;align=center;verticalAlign=middle;resizable=0;points=[];" vertex="1" connectable="0" parent="gVOaa1NUPOzYaahcJm4N-132">
          <mxGeometry x="-0.349" y="-3" relative="1" as="geometry">
            <mxPoint as="offset" />
          </mxGeometry>
        </mxCell>
        <mxCell id="gVOaa1NUPOzYaahcJm4N-134" value="alterarSenha(senha)" style="edgeLabel;html=1;align=center;verticalAlign=middle;resizable=0;points=[];" vertex="1" connectable="0" parent="gVOaa1NUPOzYaahcJm4N-132">
          <mxGeometry x="-0.1105" y="-2" relative="1" as="geometry">
            <mxPoint as="offset" />
          </mxGeometry>
        </mxCell>
        <mxCell id="gVOaa1NUPOzYaahcJm4N-135" value="" style="endArrow=block;dashed=1;endFill=0;endSize=12;html=1;rounded=0;" edge="1" parent="1">
          <mxGeometry width="160" relative="1" as="geometry">
            <mxPoint x="840" y="900" as="sourcePoint" />
            <mxPoint x="470" y="900" as="targetPoint" />
          </mxGeometry>
        </mxCell>
        <mxCell id="gVOaa1NUPOzYaahcJm4N-136" value="senhaAlterada()" style="edgeLabel;html=1;align=center;verticalAlign=middle;resizable=0;points=[];" vertex="1" connectable="0" parent="gVOaa1NUPOzYaahcJm4N-135">
          <mxGeometry x="-0.0264" y="3" relative="1" as="geometry">
            <mxPoint as="offset" />
          </mxGeometry>
        </mxCell>
        <mxCell id="gVOaa1NUPOzYaahcJm4N-137" value="" style="endArrow=classic;html=1;rounded=0;" edge="1" parent="1">
          <mxGeometry width="50" height="50" relative="1" as="geometry">
            <mxPoint x="150" y="920" as="sourcePoint" />
            <mxPoint x="470" y="920" as="targetPoint" />
            <Array as="points">
              <mxPoint x="340" y="920" />
            </Array>
          </mxGeometry>
        </mxCell>
        <mxCell id="gVOaa1NUPOzYaahcJm4N-138" value="alterarSenha(senha)" style="edgeLabel;html=1;align=center;verticalAlign=middle;resizable=0;points=[];" vertex="1" connectable="0" parent="gVOaa1NUPOzYaahcJm4N-137">
          <mxGeometry x="-0.349" y="-3" relative="1" as="geometry">
            <mxPoint as="offset" />
          </mxGeometry>
        </mxCell>
        <mxCell id="gVOaa1NUPOzYaahcJm4N-139" value="" style="endArrow=classic;html=1;rounded=0;" edge="1" parent="1">
          <mxGeometry width="50" height="50" relative="1" as="geometry">
            <mxPoint x="470" y="920" as="sourcePoint" />
            <mxPoint x="840" y="920" as="targetPoint" />
          </mxGeometry>
        </mxCell>
        <mxCell id="gVOaa1NUPOzYaahcJm4N-140" value="&lt;div&gt;&lt;br&gt;&lt;/div&gt;&lt;div&gt;&lt;br&gt;&lt;/div&gt;" style="edgeLabel;html=1;align=center;verticalAlign=middle;resizable=0;points=[];" vertex="1" connectable="0" parent="gVOaa1NUPOzYaahcJm4N-139">
          <mxGeometry x="-0.349" y="-3" relative="1" as="geometry">
            <mxPoint as="offset" />
          </mxGeometry>
        </mxCell>
        <mxCell id="gVOaa1NUPOzYaahcJm4N-141" value="alterarSenha(senha)" style="edgeLabel;html=1;align=center;verticalAlign=middle;resizable=0;points=[];" vertex="1" connectable="0" parent="gVOaa1NUPOzYaahcJm4N-139">
          <mxGeometry x="-0.1105" y="-2" relative="1" as="geometry">
            <mxPoint as="offset" />
          </mxGeometry>
        </mxCell>
        <mxCell id="gVOaa1NUPOzYaahcJm4N-142" value="" style="endArrow=block;dashed=1;endFill=0;endSize=12;html=1;rounded=0;" edge="1" parent="1">
          <mxGeometry width="160" relative="1" as="geometry">
            <mxPoint x="840" y="950" as="sourcePoint" />
            <mxPoint x="470" y="950" as="targetPoint" />
          </mxGeometry>
        </mxCell>
        <mxCell id="gVOaa1NUPOzYaahcJm4N-143" value="senhaAlterada()" style="edgeLabel;html=1;align=center;verticalAlign=middle;resizable=0;points=[];" vertex="1" connectable="0" parent="gVOaa1NUPOzYaahcJm4N-142">
          <mxGeometry x="-0.0264" y="3" relative="1" as="geometry">
            <mxPoint as="offset" />
          </mxGeometry>
        </mxCell>
        <mxCell id="gVOaa1NUPOzYaahcJm4N-144" value="" style="endArrow=classic;html=1;rounded=0;" edge="1" parent="1">
          <mxGeometry width="50" height="50" relative="1" as="geometry">
            <mxPoint x="80" y="990" as="sourcePoint" />
            <mxPoint x="250" y="990" as="targetPoint" />
            <Array as="points" />
          </mxGeometry>
        </mxCell>
        <mxCell id="gVOaa1NUPOzYaahcJm4N-145" value="atualizar&lt;div&gt;Dados&lt;/div&gt;&lt;div&gt;Conta&lt;/div&gt;&lt;div&gt;(email, senha)&lt;/div&gt;" style="edgeLabel;html=1;align=center;verticalAlign=middle;resizable=0;points=[];" vertex="1" connectable="0" parent="gVOaa1NUPOzYaahcJm4N-144">
          <mxGeometry x="-0.349" y="-3" relative="1" as="geometry">
            <mxPoint as="offset" />
          </mxGeometry>
        </mxCell>
        <mxCell id="gVOaa1NUPOzYaahcJm4N-146" value="" style="endArrow=classic;html=1;rounded=0;" edge="1" parent="1">
          <mxGeometry width="50" height="50" relative="1" as="geometry">
            <mxPoint x="250" y="990" as="sourcePoint" />
            <mxPoint x="840" y="990" as="targetPoint" />
          </mxGeometry>
        </mxCell>
        <mxCell id="gVOaa1NUPOzYaahcJm4N-147" value="&lt;div&gt;&lt;br&gt;&lt;/div&gt;&lt;div&gt;&lt;br&gt;&lt;/div&gt;" style="edgeLabel;html=1;align=center;verticalAlign=middle;resizable=0;points=[];" vertex="1" connectable="0" parent="gVOaa1NUPOzYaahcJm4N-146">
          <mxGeometry x="-0.349" y="-3" relative="1" as="geometry">
            <mxPoint as="offset" />
          </mxGeometry>
        </mxCell>
        <mxCell id="gVOaa1NUPOzYaahcJm4N-148" value="atualizarDadosConta(email, senha)" style="edgeLabel;html=1;align=center;verticalAlign=middle;resizable=0;points=[];" vertex="1" connectable="0" parent="gVOaa1NUPOzYaahcJm4N-146">
          <mxGeometry x="-0.1105" y="-2" relative="1" as="geometry">
            <mxPoint as="offset" />
          </mxGeometry>
        </mxCell>
        <mxCell id="gVOaa1NUPOzYaahcJm4N-149" value="" style="endArrow=block;dashed=1;endFill=0;endSize=12;html=1;rounded=0;" edge="1" parent="1">
          <mxGeometry width="160" relative="1" as="geometry">
            <mxPoint x="840" y="1020" as="sourcePoint" />
            <mxPoint x="240" y="1020" as="targetPoint" />
          </mxGeometry>
        </mxCell>
        <mxCell id="gVOaa1NUPOzYaahcJm4N-150" value="dadosAtualizados()" style="edgeLabel;html=1;align=center;verticalAlign=middle;resizable=0;points=[];" vertex="1" connectable="0" parent="gVOaa1NUPOzYaahcJm4N-149">
          <mxGeometry x="-0.0264" y="3" relative="1" as="geometry">
            <mxPoint as="offset" />
          </mxGeometry>
        </mxCell>
        <mxCell id="gVOaa1NUPOzYaahcJm4N-151" value="Conta" style="rounded=0;whiteSpace=wrap;html=1;" vertex="1" parent="1">
          <mxGeometry x="200" y="80" width="90" height="30" as="geometry" />
        </mxCell>
        <mxCell id="gVOaa1NUPOzYaahcJm4N-152" value="" style="endArrow=none;dashed=1;html=1;rounded=0;entryX=0.5;entryY=1;entryDx=0;entryDy=0;exitX=0.5;exitY=0;exitDx=0;exitDy=0;" edge="1" parent="1" source="gVOaa1NUPOzYaahcJm4N-153">
          <mxGeometry width="50" height="50" relative="1" as="geometry">
            <mxPoint x="248.78" y="1131" as="sourcePoint" />
            <mxPoint x="241.22" y="110" as="targetPoint" />
            <Array as="points" />
          </mxGeometry>
        </mxCell>
        <mxCell id="gVOaa1NUPOzYaahcJm4N-153" value="Conta" style="rounded=0;whiteSpace=wrap;html=1;" vertex="1" parent="1">
          <mxGeometry x="200" y="1127" width="90" height="30" as="geometry" />
        </mxCell>
        <mxCell id="gVOaa1NUPOzYaahcJm4N-154" value="" style="endArrow=classic;html=1;rounded=0;" edge="1" parent="1">
          <mxGeometry width="50" height="50" relative="1" as="geometry">
            <mxPoint x="140" y="1050" as="sourcePoint" />
            <mxPoint x="250" y="1050" as="targetPoint" />
            <Array as="points" />
          </mxGeometry>
        </mxCell>
        <mxCell id="gVOaa1NUPOzYaahcJm4N-155" value="atualizar&lt;div&gt;Dados&lt;/div&gt;&lt;div&gt;Conta&lt;/div&gt;&lt;div&gt;(email, senha)&lt;/div&gt;" style="edgeLabel;html=1;align=center;verticalAlign=middle;resizable=0;points=[];" vertex="1" connectable="0" parent="gVOaa1NUPOzYaahcJm4N-154">
          <mxGeometry x="-0.349" y="-3" relative="1" as="geometry">
            <mxPoint as="offset" />
          </mxGeometry>
        </mxCell>
        <mxCell id="gVOaa1NUPOzYaahcJm4N-156" value="" style="endArrow=classic;html=1;rounded=0;" edge="1" parent="1">
          <mxGeometry width="50" height="50" relative="1" as="geometry">
            <mxPoint x="250" y="1050" as="sourcePoint" />
            <mxPoint x="840" y="1050" as="targetPoint" />
          </mxGeometry>
        </mxCell>
        <mxCell id="gVOaa1NUPOzYaahcJm4N-157" value="&lt;div&gt;&lt;br&gt;&lt;/div&gt;&lt;div&gt;&lt;br&gt;&lt;/div&gt;" style="edgeLabel;html=1;align=center;verticalAlign=middle;resizable=0;points=[];" vertex="1" connectable="0" parent="gVOaa1NUPOzYaahcJm4N-156">
          <mxGeometry x="-0.349" y="-3" relative="1" as="geometry">
            <mxPoint as="offset" />
          </mxGeometry>
        </mxCell>
        <mxCell id="gVOaa1NUPOzYaahcJm4N-158" value="atualizarDadosConta(email, senha)" style="edgeLabel;html=1;align=center;verticalAlign=middle;resizable=0;points=[];" vertex="1" connectable="0" parent="gVOaa1NUPOzYaahcJm4N-156">
          <mxGeometry x="-0.1105" y="-2" relative="1" as="geometry">
            <mxPoint as="offset" />
          </mxGeometry>
        </mxCell>
        <mxCell id="gVOaa1NUPOzYaahcJm4N-159" value="" style="endArrow=block;dashed=1;endFill=0;endSize=12;html=1;rounded=0;" edge="1" parent="1">
          <mxGeometry width="160" relative="1" as="geometry">
            <mxPoint x="840" y="1080" as="sourcePoint" />
            <mxPoint x="240" y="1080" as="targetPoint" />
          </mxGeometry>
        </mxCell>
        <mxCell id="gVOaa1NUPOzYaahcJm4N-160" value="dadosAtualizados()" style="edgeLabel;html=1;align=center;verticalAlign=middle;resizable=0;points=[];" vertex="1" connectable="0" parent="gVOaa1NUPOzYaahcJm4N-159">
          <mxGeometry x="-0.0264" y="3" relative="1" as="geometry">
            <mxPoint as="offset" />
          </mxGeometry>
        </mxCell>
      </root>
    </mxGraphModel>
  </diagram>
</mxfile>
